<svg width="12" height="8" viewBox="0 0 12 8" fill="none" xmlns="http://www.w3.org/2000/svg">
<path fill-rule="evenodd" clip-rule="evenodd" d="M6.58902 7.08914C6.43274 7.24537 6.22082 7.33313 5.99985 7.33313C5.77888 7.33313 5.56696 7.24537 5.41068 7.08914L0.696516 2.37497C0.544717 2.21781 0.460722 2.0073 0.462621 1.78881C0.46452 1.57031 0.552161 1.3613 0.706668 1.20679C0.861175 1.05229 1.07018 0.964645 1.28868 0.962746C1.50718 0.960847 1.71768 1.04484 1.87485 1.19664L5.99985 5.32164L10.1248 1.19664C10.282 1.04484 10.4925 0.960847 10.711 0.962746C10.9295 0.964645 11.1385 1.05229 11.293 1.20679C11.4475 1.3613 11.5352 1.57031 11.5371 1.78881C11.539 2.0073 11.455 2.21781 11.3032 2.37497L6.58902 7.08914Z" fill="#898989"/>
</svg>
