<svg width="16" height="18" viewBox="0 0 16 18" fill="none" xmlns="http://www.w3.org/2000/svg">
<path d="M5.5 16.5H3.83333C2.45262 16.5 1.33333 15.4491 1.33333 14.1528V8.08335C1.33333 7.46083 1.59673 6.8638 2.06557 6.42361L6.82149 1.95832C7.47236 1.34722 8.52764 1.34723 9.17851 1.95832L13.9344 6.42361C14.4033 6.8638 14.6667 7.46083 14.6667 8.08335V14.1528C14.6667 15.4491 13.5474 16.5 12.1667 16.5H10.5M5.5 16.5V12.3333C5.5 11.4129 6.24619 10.6667 7.16667 10.6667H8.83333C9.75381 10.6667 10.5 11.4129 10.5 12.3333V16.5M5.5 16.5H10.5" stroke="#2D62FE" stroke-width="2"/>
</svg>
