<svg width="18" height="18" viewBox="0 0 18 18" fill="none" xmlns="http://www.w3.org/2000/svg">
<path d="M9.83333 16.4918V12.3333C9.83333 10.9526 10.9526 9.83333 12.3333 9.83333H16.4918M9.83333 16.4918C9.76632 16.4973 9.69887 16.5 9.63113 16.5H4C2.61929 16.5 1.5 15.3807 1.5 14V4C1.5 2.61929 2.61929 1.5 4 1.5H14C15.3807 1.5 16.5 2.61929 16.5 4V9.63113C16.5 9.69887 16.4973 9.76632 16.4918 9.83333M9.83333 16.4918C10.4223 16.444 10.978 16.1887 11.3989 15.7678L15.7678 11.3989C16.1887 10.978 16.444 10.4223 16.4918 9.83333" stroke="#666D80" stroke-width="2" stroke-linejoin="round"/>
</svg>
