<svg width="30" height="30" viewBox="0 0 30 30" fill="none" xmlns="http://www.w3.org/2000/svg">
<path fill-rule="evenodd" clip-rule="evenodd" d="M7.5 5.9375C6.6375 5.9375 5.9375 6.6375 5.9375 7.5V11.25C5.9375 11.4986 5.83873 11.7371 5.66291 11.9129C5.4871 12.0887 5.24864 12.1875 5 12.1875C4.75136 12.1875 4.5129 12.0887 4.33709 11.9129C4.16127 11.7371 4.0625 11.4986 4.0625 11.25V7.5C4.0625 6.58832 4.42466 5.71398 5.06932 5.06932C5.71398 4.42466 6.58832 4.0625 7.5 4.0625H11.25C11.4986 4.0625 11.7371 4.16127 11.9129 4.33709C12.0887 4.5129 12.1875 4.75136 12.1875 5C12.1875 5.24864 12.0887 5.4871 11.9129 5.66291C11.7371 5.83873 11.4986 5.9375 11.25 5.9375H7.5ZM17.8125 5C17.8125 4.75136 17.9113 4.5129 18.0871 4.33709C18.2629 4.16127 18.5014 4.0625 18.75 4.0625H22.5C23.4117 4.0625 24.286 4.42466 24.9307 5.06932C25.5753 5.71398 25.9375 6.58832 25.9375 7.5V11.25C25.9375 11.4986 25.8387 11.7371 25.6629 11.9129C25.4871 12.0887 25.2486 12.1875 25 12.1875C24.7514 12.1875 24.5129 12.0887 24.3371 11.9129C24.1613 11.7371 24.0625 11.4986 24.0625 11.25V7.5C24.0625 6.6375 23.3625 5.9375 22.5 5.9375H18.75C18.5014 5.9375 18.2629 5.83873 18.0871 5.66291C17.9113 5.4871 17.8125 5.24864 17.8125 5ZM5 17.8125C5.24864 17.8125 5.4871 17.9113 5.66291 18.0871C5.83873 18.2629 5.9375 18.5014 5.9375 18.75V22.5C5.9375 23.3625 6.6375 24.0625 7.5 24.0625H11.25C11.4986 24.0625 11.7371 24.1613 11.9129 24.3371C12.0887 24.5129 12.1875 24.7514 12.1875 25C12.1875 25.2486 12.0887 25.4871 11.9129 25.6629C11.7371 25.8387 11.4986 25.9375 11.25 25.9375H7.5C6.58832 25.9375 5.71398 25.5753 5.06932 24.9307C4.42466 24.286 4.0625 23.4117 4.0625 22.5V18.75C4.0625 18.5014 4.16127 18.2629 4.33709 18.0871C4.5129 17.9113 4.75136 17.8125 5 17.8125ZM25 17.8125C25.2486 17.8125 25.4871 17.9113 25.6629 18.0871C25.8387 18.2629 25.9375 18.5014 25.9375 18.75V22.5C25.9375 23.4117 25.5753 24.286 24.9307 24.9307C24.286 25.5753 23.4117 25.9375 22.5 25.9375H18.75C18.5014 25.9375 18.2629 25.8387 18.0871 25.6629C17.9113 25.4871 17.8125 25.2486 17.8125 25C17.8125 24.7514 17.9113 24.5129 18.0871 24.3371C18.2629 24.1613 18.5014 24.0625 18.75 24.0625H22.5C23.3625 24.0625 24.0625 23.3625 24.0625 22.5V18.75C24.0625 18.5014 24.1613 18.2629 24.3371 18.0871C24.5129 17.9113 24.7514 17.8125 25 17.8125Z" fill="#A2A2AA"/>
</svg>
