<svg width="4" height="12" viewBox="0 0 4 12" fill="none" xmlns="http://www.w3.org/2000/svg">
<path d="M2.00004 6.66667C1.63185 6.66667 1.33337 6.36819 1.33337 6C1.33337 5.63181 1.63185 5.33333 2.00004 5.33333C2.36823 5.33333 2.66671 5.63181 2.66671 6C2.66671 6.36819 2.36823 6.66667 2.00004 6.66667Z" stroke="#666D80" stroke-width="2"/>
<path d="M2.00004 2.66667C1.63185 2.66667 1.33337 2.36819 1.33337 2C1.33337 1.63181 1.63185 1.33333 2.00004 1.33333C2.36823 1.33333 2.66671 1.63181 2.66671 2C2.66671 2.36819 2.36823 2.66667 2.00004 2.66667Z" stroke="#666D80" stroke-width="2"/>
<path d="M2.00004 10.6667C1.63185 10.6667 1.33337 10.3682 1.33337 10C1.33337 9.63181 1.63185 9.33333 2.00004 9.33333C2.36823 9.33333 2.66671 9.63181 2.66671 10C2.66671 10.3682 2.36823 10.6667 2.00004 10.6667Z" stroke="#666D80" stroke-width="2"/>
</svg>
