<svg width="10" height="14" viewBox="0 0 10 14" fill="none" xmlns="http://www.w3.org/2000/svg">
<path d="M0.757626 5.78783H9.24235C9.40649 5.78783 9.54858 5.7279 9.66848 5.60793C9.78832 5.488 9.84848 5.34597 9.84848 5.18183C9.84848 5.01768 9.78835 4.87572 9.66848 4.75562L5.42611 0.513245C5.30624 0.393443 5.16425 0.333344 5 0.333344C4.83576 0.333344 4.69376 0.393443 4.5738 0.513245L0.331421 4.75562C0.211454 4.87559 0.15152 5.01768 0.15152 5.18183C0.15152 5.34594 0.211454 5.488 0.331421 5.60793C0.451521 5.7279 0.593512 5.78783 0.757626 5.78783Z" fill="#A2A2AA"/>
<path d="M9.24234 8.21228H0.757626C0.593379 8.21228 0.451389 8.27225 0.331421 8.39208C0.211454 8.51205 0.15152 8.65404 0.15152 8.81819C0.15152 8.98233 0.211454 9.12442 0.331421 9.24433L4.5738 13.4866C4.6939 13.6066 4.83589 13.6667 5 13.6667C5.16411 13.6667 5.30624 13.6066 5.42611 13.4866L9.66848 9.24429C9.78832 9.12442 9.84848 8.98233 9.84848 8.81815C9.84848 8.65404 9.78835 8.51205 9.66848 8.39205C9.54861 8.27211 9.40649 8.21228 9.24234 8.21228Z" fill="#A2A2AA"/>
</svg>
