<svg width="16" height="11" viewBox="0 0 16 11" fill="none" xmlns="http://www.w3.org/2000/svg">
<path id="Vector" d="M16 5.49985V1.05554C16 0.9082 15.9398 0.766897 15.8326 0.662713C15.7255 0.55853 15.5801 0.5 15.4286 0.5H10.8572C10.7057 0.5 10.5604 0.55853 10.4532 0.662713C10.346 0.766897 10.2858 0.9082 10.2858 1.05554C10.2858 1.20288 10.346 1.34418 10.4532 1.44836C10.5604 1.55255 10.7057 1.61108 10.8572 1.61108H14.0493L8.57158 6.93661L6.11877 4.55126C6.0657 4.49961 6.00268 4.45864 5.93331 4.43068C5.86394 4.40272 5.78958 4.38833 5.71449 4.38833C5.6394 4.38833 5.56504 4.40272 5.49567 4.43068C5.4263 4.45864 5.36328 4.49961 5.31021 4.55126L0.167457 9.55111C0.0602362 9.65535 -1.12976e-09 9.79673 0 9.94415C1.12976e-09 10.0916 0.0602362 10.233 0.167457 10.3372C0.274678 10.4414 0.420101 10.5 0.571735 10.5C0.723369 10.5 0.868792 10.4414 0.976013 10.3372L5.71449 5.7297L8.1673 8.11504C8.22037 8.16669 8.28339 8.20767 8.35276 8.23563C8.42213 8.26358 8.49648 8.27797 8.57158 8.27797C8.64667 8.27797 8.72103 8.26358 8.79039 8.23563C8.85976 8.20767 8.92278 8.16669 8.97585 8.11504L14.8572 2.39647V5.49985C14.8572 5.64718 14.9174 5.78849 15.0245 5.89267C15.1317 5.99685 15.277 6.05538 15.4286 6.05538C15.5801 6.05538 15.7255 5.99685 15.8326 5.89267C15.9398 5.78849 16 5.64718 16 5.49985Z" fill="white"/>
</svg>
