<svg width="16" height="10" viewBox="0 0 16 10" fill="none" xmlns="http://www.w3.org/2000/svg">
<path id="Vector" d="M16 5.00015V9.44446C16 9.5918 15.9398 9.7331 15.8326 9.83729C15.7255 9.94147 15.5801 10 15.4286 10H10.8572C10.7057 10 10.5604 9.94147 10.4532 9.83729C10.346 9.7331 10.2858 9.5918 10.2858 9.44446C10.2858 9.29712 10.346 9.15582 10.4532 9.05164C10.5604 8.94745 10.7057 8.88892 10.8572 8.88892H14.0493L8.57158 3.56339L6.11877 5.94874C6.0657 6.00039 6.00268 6.04136 5.93331 6.06932C5.86394 6.09728 5.78958 6.11167 5.71449 6.11167C5.6394 6.11167 5.56504 6.09728 5.49567 6.06932C5.4263 6.04136 5.36328 6.00039 5.31021 5.94874L0.167457 0.948891C0.0602362 0.844649 -1.12976e-09 0.703267 0 0.555847C1.12976e-09 0.408427 0.0602362 0.267045 0.167457 0.162804C0.274678 0.0585623 0.420101 1.09836e-09 0.571735 0C0.723369 -1.09836e-09 0.868792 0.0585623 0.976013 0.162804L5.71449 4.7703L8.1673 2.38496C8.22037 2.33331 8.28339 2.29233 8.35276 2.26437C8.42213 2.23642 8.49648 2.22203 8.57158 2.22203C8.64667 2.22203 8.72103 2.23642 8.79039 2.26437C8.85976 2.29233 8.92278 2.33331 8.97585 2.38496L14.8572 8.10353V5.00015C14.8572 4.85282 14.9174 4.71151 15.0245 4.60733C15.1317 4.50315 15.277 4.44462 15.4286 4.44462C15.5801 4.44462 15.7255 4.50315 15.8326 4.60733C15.9398 4.71151 16 4.85282 16 5.00015Z" fill="white"/>
</svg>
